PathFileType	4	(X/Y/Z)	Patient3_L_KneeIso_Processed.trc
DataRate	CameraRate	NumFrames	NumMarkers	Units	OrigDataRate	OrigDataStartFrame	OrigNumFrames
100.000000000000	100.000000000000	4	33	mm	100.000000000000	151	       301
Frame#	Time	L.Toe			R.Toe			L.Midfoot.Superior			Neck			R.Midfoot.Superior			R.Shoulder			L.Shank.Lateral			R.Wrist			L.Shoulder			R.Midfoot.Lateral			L.Heel			R.Heel			R.Patella			L.Wrist			R.Shank.Inferior			R.Shank.Lateral			L.Elbow			L.Asis			L.Shank.Inferior			L.Patella			L.Thigh.Lateral			L.Thigh.Superior			R.Elbow			R.Shank.Superior			L.Thigh.Inferior			R.Thigh.Superior			L.Midfoot.Lateral			R.Thigh.Lateral			L.Shank.Superior			R.Thigh.Inferior			Sacral			R.Asis			Sternum			
		X1	Y1	Z1	X2	Y2	Z2	X3	Y3	Z3	X4	Y4	Z4	X5	Y5	Z5	X6	Y6	Z6	X7	Y7	Z7	X8	Y8	Z8	X9	Y9	Z9	X10	Y10	Z10	X11	Y11	Z11	X12	Y12	Z12	X13	Y13	Z13	X14	Y14	Z14	X15	Y15	Z15	X16	Y16	Z16	X17	Y17	Z17	X18	Y18	Z18	X19	Y19	Z19	X20	Y20	Z20	X21	Y21	Z21	X22	Y22	Z22	X23	Y23	Z23	X24	Y24	Z24	X25	Y25	Z25	X26	Y26	Z26	X27	Y27	Z27	X28	Y28	Z28	X29	Y29	Z29	X30	Y30	Z30	X31	Y31	Z31	X32	Y32	Z32	X33	Y33	Z33	

151	2.500000000000	309.765930608864	160.341315440477	354.471642380524	690.277473163028	41.170250112961	588.606394642487	292.295661307665	287.613194697711	366.124740275968	484.051970950818	1484.734270829282	645.954856971100	565.489975282704	91.136761442966	590.024321653250	506.275652220300	1435.951133309276	791.701214748887	465.003760350707	494.917480512121	335.892158671878	585.687719423026	1167.272165588179	1116.443935845979	531.689885852002	1472.581810039075	506.957494573626	478.549316480303	30.582061980469	638.378013043113	156.023432421337	409.847892270026	383.092323570166	391.166328494417	37.221100039829	580.392429752448	601.610621778384	492.663532496127	649.300510321455	679.705526217636	1310.508113407388	500.635517794171	533.662864577099	214.995287230114	622.623831147967	487.433369447775	341.464709079928	707.989811471837	556.779997854297	1183.703055036557	321.181157194039	590.929702767408	984.611531669802	452.781488756524	402.542599788205	384.056854261165	381.674306301181	680.162949351373	493.091424756859	430.096400697162	588.179301119314	689.484927918262	375.324607358068	664.360785184802	770.102867439582	441.177561821671	402.973989309210	1132.664184818615	940.644422541713	569.114031339651	385.363675510508	655.551979618178	683.835699876584	642.588175479043	433.809572350216	632.552608147412	710.726812689221	692.751028497978	196.186388803555	339.820375223927	321.771736269870	542.759145996306	656.398623348429	741.942757893949	553.608913030332	435.543622370558	393.738457237524	617.056924661281	598.715903046559	667.850458102685	424.377308182045	1008.429202390501	594.503000818751	598.021900684795	969.896668513332	715.926811965675	617.332529082882	1386.781336644488	647.362736845118	
152	2.510000000000	316.553377161162	155.517504087536	355.567173061207	690.279927035171	41.175831994808	588.608972648147	296.473231293626	282.416676286023	366.760343308499	484.153294799984	1484.738623552560	645.748405432001	565.486062331767	91.151153992588	590.039432917150	506.367738639651	1436.008098292597	791.502782629623	465.616629926734	492.109235495376	336.175035230401	585.739444303406	1167.433686789778	1116.456034786854	531.754440091926	1472.517828469901	506.740178436642	478.548460082688	30.579988119153	638.379607121347	157.699623459689	401.984759914828	382.779930127662	391.148935396351	37.221827453246	580.415194783544	601.748486481970	492.633868228260	649.344512346877	679.719462197053	1310.392035616692	500.457329520956	533.673601003958	214.980066280669	622.688340705412	487.492422171148	341.481972485636	708.051353301103	556.698153667982	1183.537053778630	321.098213347943	591.023048115790	984.576795059669	452.744075153777	404.774982618970	380.576240510292	382.220371695493	680.600803711385	493.251721514253	430.538099964733	588.255648551623	689.279274198911	375.733018482133	664.488522470412	770.051557399254	441.308779706843	403.060627591609	1132.801383290766	940.619960105021	569.174625203617	385.325592256752	655.593454937073	683.886241547074	642.538141165712	434.075881085209	632.668331352402	710.719755869283	692.811614421860	199.498479767108	332.560552877606	321.847589503083	542.823594846045	656.399049766930	741.922325573594	554.971852916348	434.365637894086	394.302437103887	617.187974156161	598.703388550436	667.915019271862	424.439415817655	1008.378135836638	594.430483978559	598.077054858469	969.907403066972	715.892893999083	617.404250538860	1386.750547898798	647.166514232908	
153	2.520000000000	323.390805916264	150.771404434041	356.684226546673	690.282320532973	41.184466940853	588.611629988255	300.719639294070	277.249254388862	367.385939769930	484.240301566766	1484.742510185815	645.548605698510	565.483190411113	91.167691674954	590.053897551262	506.449591543039	1436.063930549287	791.310229710481	466.261191534657	489.272192593673	336.409271694631	585.807103194867	1167.588849079289	1116.463816920388	531.806043874875	1472.457740712911	506.529641844315	478.547823099764	30.578778114892	638.380640079263	159.503731106461	394.106201738705	382.449592302118	391.132858798279	37.223609379758	580.436667917290	601.885302971732	492.605321477151	649.408327532493	679.728073169686	1310.287803305221	500.284240941088	533.677227828949	214.966719425712	622.765173675961	487.531271484585	341.502318668658	708.116587033137	556.618857784403	1183.378334322827	321.018369213782	591.126487039335	984.545322922224	452.711225296723	407.045576370711	377.115275081264	382.761061963452	681.018409361299	493.413137261431	430.941807374293	588.320101724164	689.080439917963	376.122245738596	664.615196879820	769.999923468210	441.415454431399	403.152824898665	1132.932214152478	940.599659030949	569.227527266704	385.287776515165	655.648476384628	683.927084742809	642.486781814779	434.307886512059	632.777649157006	710.713668582560	692.890814862621	202.921466011131	325.308603563397	321.917193437729	542.875750697967	656.402679089202	741.909184719830	556.342783366166	433.214257749544	394.844528595509	617.314609701116	598.691514897464	667.998748066265	424.506921553883	1008.328410480627	594.354380045708	598.131441337716	969.920931282618	715.865459867129	617.466710445523	1386.725970980935	646.975779746955	
154	2.530000000000	330.268805420314	146.107949285416	357.811798793120	690.284805448035	41.194737008305	588.614200131874	305.029384437666	272.116103447326	367.996256354582	484.313370444980	1484.745426718233	645.355602461228	565.481482426816	91.185129556719	590.066964863158	506.521620432242	1436.117491297293	791.123561777830	466.939283521191	486.412295370568	336.594796458478	585.890906210861	1167.736780368152	1116.466304158489	531.845533776334	1472.401688440910	506.326064614917	478.547474137057	30.578535635797	638.381189784901	161.437298670987	386.224180598143	382.099333311833	391.118608723762	37.226267919562	580.456204366974	602.020500056546	492.578064256297	649.484607171730	679.732978540139	1310.196143082093	500.116393993425	533.676336829011	214.955000052819	622.848693976176	487.554664126683	341.524555609691	708.181351928566	556.545462422263	1183.228566017709	320.940083713484	591.238778049709	984.517158259071	452.681291082582	409.353945926931	373.679484271468	383.292850749135	681.416709487275	493.575097656951	431.312924485500	588.375595470402	688.888415223620	376.492957135077	664.741437774975	769.947744377348	441.500767128019	403.250744851520	1133.055384021606	940.582501094934	569.275030667973	385.250672323488	655.711354986947	683.958859955266	642.433791847083	434.510416754613	632.881797417284	710.708683652137	692.980495731168	206.453549037689	318.076149078557	321.976176118123	542.920033751263	656.408694219420	741.900130225017	557.720354736345	432.093552493088	395.366433096715	617.437094656065	598.680623686026	668.093442890606	424.579760452895	1008.279820556710	594.274533447387	598.186041112365	969.936712942621	715.842339045503	617.520452752865	1386.707294561678	646.790622100786	
